<mxfile host="app.diagrams.net" modified="2023-08-31T23:05:33.295Z" agent="Mozilla/5.0 (X11; Linux x86_64; rv:109.0) Gecko/20100101 Firefox/116.0" etag="DBOAeyZPtGJCnRje6_x7" version="21.6.9" type="github">
  <diagram name="Página-1" id="2HY_7kydOwEn8t5Ldo46">
    <mxGraphModel dx="443" dy="379" grid="1" gridSize="10" guides="1" tooltips="1" connect="1" arrows="1" fold="1" page="1" pageScale="1" pageWidth="827" pageHeight="1169" math="0" shadow="0">
      <root>
        <mxCell id="0" />
        <mxCell id="1" parent="0" />
        <mxCell id="DIFYzaYjqBroH2ONJG6T-4" style="edgeStyle=orthogonalEdgeStyle;rounded=0;orthogonalLoop=1;jettySize=auto;html=1;exitX=1;exitY=0.5;exitDx=0;exitDy=0;entryX=0;entryY=0.5;entryDx=0;entryDy=0;endArrow=none;endFill=0;" edge="1" parent="1" source="DIFYzaYjqBroH2ONJG6T-1" target="DIFYzaYjqBroH2ONJG6T-2">
          <mxGeometry relative="1" as="geometry" />
        </mxCell>
        <mxCell id="DIFYzaYjqBroH2ONJG6T-6" value="&lt;div&gt;(1, N)&lt;/div&gt;" style="edgeLabel;html=1;align=center;verticalAlign=middle;resizable=0;points=[];" vertex="1" connectable="0" parent="DIFYzaYjqBroH2ONJG6T-4">
          <mxGeometry x="-0.4533" y="1" relative="1" as="geometry">
            <mxPoint x="3" y="-9" as="offset" />
          </mxGeometry>
        </mxCell>
        <mxCell id="DIFYzaYjqBroH2ONJG6T-1" value="Curso" style="whiteSpace=wrap;html=1;align=center;" vertex="1" parent="1">
          <mxGeometry x="70" y="100" width="100" height="40" as="geometry" />
        </mxCell>
        <mxCell id="DIFYzaYjqBroH2ONJG6T-5" style="edgeStyle=orthogonalEdgeStyle;rounded=0;orthogonalLoop=1;jettySize=auto;html=1;exitX=1;exitY=0.5;exitDx=0;exitDy=0;entryX=0;entryY=0.5;entryDx=0;entryDy=0;endArrow=none;endFill=0;" edge="1" parent="1" source="DIFYzaYjqBroH2ONJG6T-2" target="DIFYzaYjqBroH2ONJG6T-3">
          <mxGeometry relative="1" as="geometry" />
        </mxCell>
        <mxCell id="DIFYzaYjqBroH2ONJG6T-7" value="(0, N)" style="edgeLabel;html=1;align=center;verticalAlign=middle;resizable=0;points=[];" vertex="1" connectable="0" parent="DIFYzaYjqBroH2ONJG6T-5">
          <mxGeometry x="0.7568" y="1" relative="1" as="geometry">
            <mxPoint x="-16" y="-9" as="offset" />
          </mxGeometry>
        </mxCell>
        <mxCell id="DIFYzaYjqBroH2ONJG6T-2" value="Matriculado" style="shape=rhombus;perimeter=rhombusPerimeter;whiteSpace=wrap;html=1;align=center;" vertex="1" parent="1">
          <mxGeometry x="230" y="90" width="120" height="60" as="geometry" />
        </mxCell>
        <mxCell id="DIFYzaYjqBroH2ONJG6T-3" value="Aluno" style="whiteSpace=wrap;html=1;align=center;" vertex="1" parent="1">
          <mxGeometry x="413.5" y="100" width="100" height="40" as="geometry" />
        </mxCell>
        <mxCell id="DIFYzaYjqBroH2ONJG6T-8" value="&lt;div&gt;Um aluno pode estar matriculado em no mínimo 1 curso e no máximo vários.&lt;/div&gt;&lt;div&gt;Um curso pode ter no mínimo 0 alunos (pode ser um novo curso que ainda não foi matriculado nenhum) e no máximo vários alunos.&lt;br&gt;&lt;/div&gt;" style="text;html=1;strokeColor=none;fillColor=none;align=left;verticalAlign=middle;whiteSpace=wrap;rounded=0;" vertex="1" parent="1">
          <mxGeometry x="70" y="170" width="440" height="60" as="geometry" />
        </mxCell>
      </root>
    </mxGraphModel>
  </diagram>
</mxfile>
